<svg xmlns="http://www.w3.org/2000/svg" xmlns:xlink="http://www.w3.org/1999/xlink" version="1.1" width="256" height="256" viewBox="0 0 256 256" xml:space="preserve">

<defs>
</defs>
<g style="stroke: none; stroke-width: 0; stroke-dasharray: none; stroke-linecap: butt; stroke-linejoin: miter; stroke-miterlimit: 10; fill: none; fill-rule: nonzero; opacity: 1;" transform="translate(1.4065934065934016 1.4065934065934016) scale(2.81 2.81)" >
	<path d="M 71.656 37.966 h -0.503 c -1.183 0 -2.298 0.287 -3.282 0.795 c -0.575 -3.389 -3.532 -5.978 -7.082 -5.978 h -0.503 c -1.326 0 -2.569 0.361 -3.637 0.99 c -1.021 -2.724 -3.652 -4.668 -6.729 -4.668 h -0.502 c -1.143 0 -2.223 0.268 -3.183 0.744 V 18.819 c 0 -3.96 -3.222 -7.183 -7.183 -7.183 h -0.502 c -3.96 0 -7.183 3.222 -7.183 7.183 v 27.414 l -3.479 2.641 c -2.638 2.003 -4.311 4.917 -4.71 8.205 c -0.398 3.289 0.529 6.519 2.612 9.094 l 10.604 13.109 v 5.273 c 0 3.002 2.442 5.444 5.444 5.444 h 26.334 c 3.002 0 5.444 -2.442 5.444 -5.444 l 0.001 -5.009 c 3.37 -4.203 5.218 -9.433 5.218 -14.809 v -19.59 C 78.839 41.188 75.617 37.966 71.656 37.966 z M 74.839 64.738 c 0 4.674 -1.683 9.215 -4.738 12.787 c -0.311 0.362 -0.48 0.823 -0.48 1.3 v 5.73 c 0 0.797 -0.647 1.444 -1.444 1.444 H 41.841 c -0.796 0 -1.444 -0.647 -1.444 -1.444 v -5.981 c 0 -0.458 -0.157 -0.902 -0.445 -1.258 l -11.05 -13.659 c -1.396 -1.727 -2.019 -3.892 -1.751 -6.097 c 0.267 -2.204 1.389 -4.158 3.157 -5.501 l 1.06 -0.804 v 6.684 c 0 1.104 0.896 2 2 2 s 2 -0.896 2 -2 V 47.246 c 0 -0.014 0 -0.028 0 -0.042 V 18.819 c 0 -1.755 1.428 -3.183 3.183 -3.183 h 0.502 c 1.755 0 3.183 1.428 3.183 3.183 v 17.469 c 0 0 0 0 0 0.001 s 0 0 0 0.001 l 0.011 14.531 c 0.001 1.104 0.896 1.998 2 1.998 c 0 0 0.001 0 0.001 0 c 1.104 -0.001 2 -0.896 1.999 -2.002 l -0.011 -14.528 c 0 -1.754 1.428 -3.182 3.183 -3.182 h 0.502 c 1.755 0 3.183 1.428 3.183 3.182 v 3.678 c 0 0 0 0.001 0 0.001 c 0 0 0 0.001 0 0.001 l 0.011 10.853 c 0.001 1.104 0.896 1.998 2 1.998 c 0.001 0 0.001 0 0.002 0 c 1.104 -0.001 1.999 -0.897 1.998 -2.002 l -0.011 -10.851 c 0 -1.754 1.428 -3.182 3.183 -3.182 h 0.503 c 1.755 0 3.183 1.428 3.183 3.182 v 4.602 c -0.008 0.072 -0.022 0.143 -0.021 0.217 l 0.011 6.037 c 0.002 1.103 0.897 1.996 2 1.996 c 0.001 0 0.002 0 0.004 0 c 1.104 -0.002 1.998 -0.899 1.996 -2.004 l -0.01 -5.463 c 0.007 -0.068 0.02 -0.133 0.02 -0.203 c 0 -1.755 1.428 -3.183 3.182 -3.183 h 0.503 c 1.755 0 3.183 1.428 3.183 3.183 V 64.738 z" style="stroke: none; stroke-width: 1; stroke-dasharray: none; stroke-linecap: butt; stroke-linejoin: miter; stroke-miterlimit: 10; fill: rgb(0,0,0); fill-rule: nonzero; opacity: 1;" transform=" matrix(1 0 0 1 0 0) " stroke-linecap="round" />
	<path d="M 25.719 26.934 c -0.668 0 -1.321 -0.335 -1.7 -0.944 c -1.675 -2.69 -2.56 -5.795 -2.56 -8.979 C 21.459 7.631 29.09 0 38.47 0 c 9.38 0 17.011 7.631 17.011 17.011 c 0 2.438 -0.505 4.792 -1.502 6.998 c -0.454 1.007 -1.641 1.453 -2.646 1 c -1.007 -0.455 -1.454 -1.64 -0.999 -2.646 c 0.761 -1.685 1.146 -3.485 1.146 -5.351 C 51.481 9.837 45.645 4 38.47 4 S 25.459 9.837 25.459 17.011 c 0 2.436 0.676 4.81 1.956 6.865 c 0.584 0.938 0.297 2.171 -0.641 2.754 C 26.445 26.836 26.08 26.934 25.719 26.934 z" style="stroke: none; stroke-width: 1; stroke-dasharray: none; stroke-linecap: butt; stroke-linejoin: miter; stroke-miterlimit: 10; fill: rgb(0,0,0); fill-rule: nonzero; opacity: 1;" transform=" matrix(1 0 0 1 0 0) " stroke-linecap="round" />
	<path d="M 61.144 28.176 c -0.356 0 -0.718 -0.096 -1.045 -0.296 c -0.941 -0.578 -1.235 -1.81 -0.657 -2.751 c 1.529 -2.491 2.338 -5.461 2.338 -8.588 c 0 -3.105 -0.8 -6.06 -2.312 -8.544 c -0.574 -0.943 -0.275 -2.174 0.668 -2.749 c 0.943 -0.574 2.175 -0.275 2.748 0.668 c 1.895 3.111 2.896 6.785 2.896 10.625 c 0 3.866 -1.013 7.56 -2.93 10.681 C 62.473 27.837 61.815 28.176 61.144 28.176 z" style="stroke: none; stroke-width: 1; stroke-dasharray: none; stroke-linecap: butt; stroke-linejoin: miter; stroke-miterlimit: 10; fill: rgb(0,0,0); fill-rule: nonzero; opacity: 1;" transform=" matrix(1 0 0 1 0 0) " stroke-linecap="round" />
	<path d="M 15.801 28.176 c -0.672 0 -1.329 -0.339 -1.706 -0.954 c -1.919 -3.125 -2.934 -6.819 -2.934 -10.681 c 0 -3.839 1.001 -7.513 2.896 -10.625 c 0.574 -0.944 1.804 -1.244 2.748 -0.668 c 0.943 0.574 1.243 1.805 0.668 2.748 c -1.513 2.485 -2.313 5.439 -2.313 8.544 c 0 3.123 0.81 6.092 2.342 8.588 c 0.578 0.941 0.284 2.173 -0.658 2.75 C 16.52 28.081 16.158 28.176 15.801 28.176 z" style="stroke: none; stroke-width: 1; stroke-dasharray: none; stroke-linecap: butt; stroke-linejoin: miter; stroke-miterlimit: 10; fill: rgb(0,0,0); fill-rule: nonzero; opacity: 1;" transform=" matrix(1 0 0 1 0 0) " stroke-linecap="round" />
</g>
</svg>